<?xml version="1.0" encoding="UTF-8"?>
<svg id="Calque_1" data-name="Calque 1" xmlns="http://www.w3.org/2000/svg" viewBox="0 0 566.93 283.46">
  <polygon points="315.93 109.62 293.93 109.62 280.81 95.43 267.68 109.62 245.67 109.62 269.32 84.06 292.29 84.06 315.93 109.62"/>
  <path d="M148.85,198.41l-19.63-21.22c7.62-9.87,12.16-22.24,12.16-35.67,0-32.3-26.2-58.48-58.51-58.48s-58.51,26.18-58.51,58.48,26.2,58.48,58.51,58.48c12.6,0,24.27-3.98,33.82-10.75.58-.41,1.38-.34,1.86.18l8.3,8.98h22.01ZM82.86,184.07c-23.47,0-42.57-19.09-42.57-42.55s19.1-42.55,42.57-42.55,42.57,19.09,42.57,42.55c0,8.11-2.28,15.7-6.24,22.15-.49.81-1.62.93-2.26.23l-11.86-12.82h-22.01l23.7,25.62c-6.82,4.64-15.05,7.36-23.91,7.36Z"/>
  <path d="M230.65,163.18c0,20.57-16.67,37.24-37.24,37.24s-37.24-16.67-37.24-37.24v-40.76h15.94v40.76c0,11.74,9.55,21.3,21.3,21.3s21.3-9.55,21.3-21.3v-40.76h15.94v40.76Z"/>
  <path d="M474.29,165.44c.23-1.73.35-3.5.35-5.29,0-3.15-.37-6.21-1.06-9.15-4.3-18.26-21.19-31.66-41.01-30.53-19.79,1.12-35.93,17.01-37.34,36.78-1.65,23.27,16.73,42.66,39.65,42.66,15.57,0,29.05-8.95,35.57-21.99l-13.79-6.89c-4,7.98-12.26,13.47-21.78,13.47-10.95,0-20.24-7.26-23.29-17.23-.28-.91.41-1.83,1.36-1.83h61.32ZM434.89,135.79c9.39,0,17.56,5.35,21.62,13.15.48.93-.22,2.05-1.27,2.05h-40.69c-1.05,0-1.76-1.12-1.27-2.05,4.06-7.81,12.22-13.15,21.62-13.15Z"/>
  <path d="M356.75,169.9h-.02c0,6.72,5.46,12.18,12.18,12.18h20.27v15.92h-20.27c-7.76,0-14.78-3.15-19.87-8.23-5.09-5.08-8.23-12.11-8.23-19.87v-36c0-.78-.63-1.42-1.42-1.42h-14.52v-15.94h14.52c.78,0,1.42-.63,1.42-1.42v-31.06h15.94v31.06c0,.78.63,1.42,1.42,1.42h34.68v15.94h-34.68c-.78,0-1.42.63-1.42,1.42v36Z"/>
  <path d="M315.93,109.62h-22l-12.08-13.07c-.56-.61-1.52-.61-2.08,0l-12.09,13.07h-22.01l23.65-25.57h22.97l23.65,25.57Z"/>
  <path d="M320.2,165.44c.23-1.73.35-3.5.35-5.29,0-3.15-.37-6.21-1.06-9.15-4.3-18.26-21.19-31.66-41.01-30.53-19.79,1.12-35.93,17.01-37.34,36.78-1.65,23.27,16.73,42.66,39.65,42.66,15.57,0,29.05-8.95,35.57-21.99l-13.79-6.89c-4,7.98-12.26,13.47-21.78,13.47-10.95,0-20.24-7.26-23.29-17.23-.28-.91.41-1.83,1.36-1.83h61.32ZM280.8,135.79c9.39,0,17.56,5.35,21.62,13.15.48.93-.22,2.05-1.27,2.05h-40.69c-1.05,0-1.76-1.12-1.27-2.05,4.06-7.81,12.22-13.15,21.62-13.15Z"/>
  <polygon points="542.58 84.06 504.41 84.06 523.75 143.77 542.58 84.06"/>
  <circle cx="523.5" cy="180.81" r="19.09"/>
</svg>